<mxfile host="65bd71144e">
    <diagram id="szmvNX9jYFu9laf0fr9O" name="Страница 1">
        <mxGraphModel dx="795" dy="426" grid="1" gridSize="10" guides="1" tooltips="1" connect="1" arrows="1" fold="1" page="1" pageScale="1" pageWidth="827" pageHeight="1169" math="0" shadow="0">
            <root>
                <mxCell id="0"/>
                <mxCell id="1" parent="0"/>
                <mxCell id="2" value="CarBuilder" style="swimlane;fontStyle=3;align=center;verticalAlign=top;childLayout=stackLayout;horizontal=1;startSize=26;horizontalStack=0;resizeParent=1;resizeParentMax=0;resizeLast=0;collapsible=1;marginBottom=0;" vertex="1" parent="1">
                    <mxGeometry x="210" y="70" width="160" height="120" as="geometry"/>
                </mxCell>
                <mxCell id="4" value="" style="line;strokeWidth=1;fillColor=none;align=left;verticalAlign=middle;spacingTop=-1;spacingLeft=3;spacingRight=3;rotatable=0;labelPosition=right;points=[];portConstraint=eastwest;" vertex="1" parent="2">
                    <mxGeometry y="26" width="160" height="8" as="geometry"/>
                </mxCell>
                <mxCell id="5" value="+ addWhels(): void&#10;+ build(): void" style="text;strokeColor=none;fillColor=none;align=left;verticalAlign=top;spacingLeft=4;spacingRight=4;overflow=hidden;rotatable=0;points=[[0,0.5],[1,0.5]];portConstraint=eastwest;fontStyle=0;" vertex="1" parent="2">
                    <mxGeometry y="34" width="160" height="36" as="geometry"/>
                </mxCell>
                <mxCell id="6" value="+ addEngine(): void&#10;+ addFrame(): void&#10;+ addElectronic(): void" style="text;strokeColor=none;fillColor=none;align=left;verticalAlign=top;spacingLeft=4;spacingRight=4;overflow=hidden;rotatable=0;points=[[0,0.5],[1,0.5]];portConstraint=eastwest;fontStyle=2;" vertex="1" parent="2">
                    <mxGeometry y="70" width="160" height="50" as="geometry"/>
                </mxCell>
                <mxCell id="7" value="ElectroCar" style="swimlane;fontStyle=1;align=center;verticalAlign=top;childLayout=stackLayout;horizontal=1;startSize=26;horizontalStack=0;resizeParent=1;resizeParentMax=0;resizeLast=0;collapsible=1;marginBottom=0;html=0;" vertex="1" parent="1">
                    <mxGeometry x="100" y="270" width="160" height="90" as="geometry"/>
                </mxCell>
                <mxCell id="9" value="" style="line;strokeWidth=1;fillColor=none;align=left;verticalAlign=middle;spacingTop=-1;spacingLeft=3;spacingRight=3;rotatable=0;labelPosition=right;points=[];portConstraint=eastwest;" vertex="1" parent="7">
                    <mxGeometry y="26" width="160" height="8" as="geometry"/>
                </mxCell>
                <mxCell id="10" value="+ addEngine(): void&#10;+ addFrame(): void&#10;+ addElectronic(): void" style="text;strokeColor=none;fillColor=none;align=left;verticalAlign=top;spacingLeft=4;spacingRight=4;overflow=hidden;rotatable=0;points=[[0,0.5],[1,0.5]];portConstraint=eastwest;fontStyle=0" vertex="1" parent="7">
                    <mxGeometry y="34" width="160" height="56" as="geometry"/>
                </mxCell>
                <mxCell id="11" value="Car" style="swimlane;fontStyle=1;align=center;verticalAlign=top;childLayout=stackLayout;horizontal=1;startSize=26;horizontalStack=0;resizeParent=1;resizeParentMax=0;resizeLast=0;collapsible=1;marginBottom=0;html=0;" vertex="1" parent="1">
                    <mxGeometry x="310" y="270" width="160" height="90" as="geometry"/>
                </mxCell>
                <mxCell id="12" value="" style="line;strokeWidth=1;fillColor=none;align=left;verticalAlign=middle;spacingTop=-1;spacingLeft=3;spacingRight=3;rotatable=0;labelPosition=right;points=[];portConstraint=eastwest;" vertex="1" parent="11">
                    <mxGeometry y="26" width="160" height="8" as="geometry"/>
                </mxCell>
                <mxCell id="13" value="+ addEngine(): void&#10;+ addFrame(): void&#10;+ addElectronic(): void" style="text;strokeColor=none;fillColor=none;align=left;verticalAlign=top;spacingLeft=4;spacingRight=4;overflow=hidden;rotatable=0;points=[[0,0.5],[1,0.5]];portConstraint=eastwest;fontStyle=0" vertex="1" parent="11">
                    <mxGeometry y="34" width="160" height="56" as="geometry"/>
                </mxCell>
                <mxCell id="14" value="" style="endArrow=block;endFill=1;endSize=12;html=1;exitX=0.5;exitY=0;exitDx=0;exitDy=0;entryX=0.463;entryY=1;entryDx=0;entryDy=0;entryPerimeter=0;rounded=0;" edge="1" parent="1" source="7" target="6">
                    <mxGeometry width="160" relative="1" as="geometry">
                        <mxPoint x="330" y="270" as="sourcePoint"/>
                        <mxPoint x="283" y="220" as="targetPoint"/>
                        <Array as="points">
                            <mxPoint x="180" y="240"/>
                            <mxPoint x="284" y="240"/>
                        </Array>
                    </mxGeometry>
                </mxCell>
                <mxCell id="15" value="" style="endArrow=none;endFill=0;endSize=12;html=1;entryX=0.5;entryY=0;entryDx=0;entryDy=0;rounded=0;" edge="1" parent="1" target="11">
                    <mxGeometry width="160" relative="1" as="geometry">
                        <mxPoint x="280" y="240" as="sourcePoint"/>
                        <mxPoint x="390" y="230" as="targetPoint"/>
                        <Array as="points">
                            <mxPoint x="390" y="240"/>
                        </Array>
                    </mxGeometry>
                </mxCell>
            </root>
        </mxGraphModel>
    </diagram>
</mxfile>